<svg width="18" height="18" viewBox="0 0 18 18" fill="none" xmlns="http://www.w3.org/2000/svg">
<path d="M16.5632 3.5H13.125V2.8125C13.1244 2.26568 12.9069 1.74144 12.5202 1.35478C12.1336 0.968125 11.6093 0.750625 11.0625 0.75H6.9375C6.39068 0.750625 5.86644 0.968125 5.47978 1.35478C5.09312 1.74144 4.87563 2.26568 4.875 2.8125V3.5H1.43817C1.07363 3.50042 0.724132 3.64542 0.46636 3.90319C0.208588 4.16096 0.0635881 4.51046 0.0631712 4.875V11.7367C0.0630853 11.7412 0.0625 11.7455 0.0625 11.75C0.0625 11.7545 0.0630879 11.7588 0.0631712 11.7633V15.875C0.0635881 16.2395 0.208588 16.589 0.46636 16.8468C0.724132 17.1046 1.07363 17.2496 1.43817 17.25H16.5632C16.9277 17.2496 17.2772 17.1046 17.535 16.8468C17.7928 16.589 17.9378 16.2395 17.9382 15.875V4.875C17.9378 4.51046 17.7928 4.16096 17.535 3.90319C17.2772 3.64542 16.9277 3.50042 16.5632 3.5ZM6.25 2.8125C6.25021 2.63023 6.32271 2.45548 6.45159 2.32659C6.58048 2.19771 6.75523 2.12521 6.9375 2.125H11.0625C11.2448 2.12521 11.4195 2.19771 11.5484 2.32659C11.6773 2.45548 11.7498 2.63023 11.75 2.8125V3.5H6.25V2.8125ZM16.5632 4.875L16.5637 11.0625H1.43817V4.875H16.5632ZM16.5632 15.875H1.43817V12.4375H16.5638L16.5641 15.875L16.5632 15.875Z" fill="#A0A0A0"/>
</svg>
